<svg width="32" height="24" viewBox="0 0 32 24" fill="none" xmlns="http://www.w3.org/2000/svg">
<mask id="mask0_270_67544" style="mask-type:luminance" maskUnits="userSpaceOnUse" x="0" y="0" width="32" height="24">
<rect width="32" height="24" fill="white"/>
</mask>
<g mask="url(#mask0_270_67544)">
<path fill-rule="evenodd" clip-rule="evenodd" d="M0 0H32V24H0V0Z" fill="#F7FCFF"/>
<path fill-rule="evenodd" clip-rule="evenodd" d="M0 14.6667V16.6667H32V14.6667H0Z" fill="#E31D1C"/>
<path fill-rule="evenodd" clip-rule="evenodd" d="M0 18.3333V20.3333H32V18.3333H0Z" fill="#E31D1C"/>
<path fill-rule="evenodd" clip-rule="evenodd" d="M0 7.33334V9.33334H32V7.33334H0Z" fill="#E31D1C"/>
<path fill-rule="evenodd" clip-rule="evenodd" d="M0 22V24H32V22H0Z" fill="#E31D1C"/>
<path fill-rule="evenodd" clip-rule="evenodd" d="M0 11V13H32V11H0Z" fill="#E31D1C"/>
<path fill-rule="evenodd" clip-rule="evenodd" d="M0 0V2H32V0H0Z" fill="#E31D1C"/>
<path fill-rule="evenodd" clip-rule="evenodd" d="M0 3.66666V5.66666H32V3.66666H0Z" fill="#E31D1C"/>
<rect width="20" height="13" fill="#2E42A5"/>
<path fill-rule="evenodd" clip-rule="evenodd" d="M1.72203 2.93867L0.996148 3.44756L1.24121 2.54195L0.596497 1.96803H1.43858L1.72101 1.22897L2.05218 1.96803H2.77004L2.206 2.54195L2.42437 3.44756L1.72203 2.93867ZM5.72203 2.93867L4.99615 3.44756L5.24121 2.54195L4.5965 1.96803H5.43858L5.72101 1.22897L6.05218 1.96803H6.77004L6.206 2.54195L6.42437 3.44756L5.72203 2.93867ZM8.99615 3.44756L9.72203 2.93867L10.4244 3.44756L10.206 2.54195L10.77 1.96803H10.0522L9.72101 1.22897L9.43858 1.96803H8.5965L9.24121 2.54195L8.99615 3.44756ZM13.722 2.93867L12.9961 3.44756L13.2412 2.54195L12.5965 1.96803H13.4386L13.721 1.22897L14.0522 1.96803H14.77L14.206 2.54195L14.4244 3.44756L13.722 2.93867ZM0.996148 7.44756L1.72203 6.93867L2.42437 7.44756L2.206 6.54194L2.77004 5.96803H2.05218L1.72101 5.22897L1.43858 5.96803H0.596497L1.24121 6.54194L0.996148 7.44756ZM5.72203 6.93867L4.99615 7.44756L5.24121 6.54194L4.5965 5.96803H5.43858L5.72101 5.22897L6.05218 5.96803H6.77004L6.206 6.54194L6.42437 7.44756L5.72203 6.93867ZM8.99615 7.44756L9.72203 6.93867L10.4244 7.44756L10.206 6.54194L10.77 5.96803H10.0522L9.72101 5.22897L9.43858 5.96803H8.5965L9.24121 6.54194L8.99615 7.44756ZM13.722 6.93867L12.9961 7.44756L13.2412 6.54194L12.5965 5.96803H13.4386L13.721 5.22897L14.0522 5.96803H14.77L14.206 6.54194L14.4244 7.44756L13.722 6.93867ZM0.996148 11.4476L1.72203 10.9387L2.42437 11.4476L2.206 10.5419L2.77004 9.96803H2.05218L1.72101 9.22897L1.43858 9.96803H0.596497L1.24121 10.5419L0.996148 11.4476ZM5.72203 10.9387L4.99615 11.4476L5.24121 10.5419L4.5965 9.96803H5.43858L5.72101 9.22897L6.05218 9.96803H6.77004L6.206 10.5419L6.42437 11.4476L5.72203 10.9387ZM8.99615 11.4476L9.72203 10.9387L10.4244 11.4476L10.206 10.5419L10.77 9.96803H10.0522L9.72101 9.22897L9.43858 9.96803H8.5965L9.24121 10.5419L8.99615 11.4476ZM13.722 10.9387L12.9961 11.4476L13.2412 10.5419L12.5965 9.96803H13.4386L13.721 9.22897L14.0522 9.96803H14.77L14.206 10.5419L14.4244 11.4476L13.722 10.9387ZM16.9961 3.44756L17.722 2.93867L18.4244 3.44756L18.206 2.54195L18.77 1.96803H18.0522L17.721 1.22897L17.4386 1.96803H16.5965L17.2412 2.54195L16.9961 3.44756ZM17.722 6.93867L16.9961 7.44756L17.2412 6.54194L16.5965 5.96803H17.4386L17.721 5.22897L18.0522 5.96803H18.77L18.206 6.54194L18.4244 7.44756L17.722 6.93867ZM16.9961 11.4476L17.722 10.9387L18.4244 11.4476L18.206 10.5419L18.77 9.96803H18.0522L17.721 9.22897L17.4386 9.96803H16.5965L17.2412 10.5419L16.9961 11.4476ZM3.72203 4.93867L2.99615 5.44756L3.24121 4.54194L2.5965 3.96803H3.43858L3.72101 3.22897L4.05218 3.96803H4.77004L4.206 4.54194L4.42437 5.44756L3.72203 4.93867ZM6.99615 5.44756L7.72203 4.93867L8.42437 5.44756L8.206 4.54194L8.77004 3.96803H8.05218L7.72101 3.22897L7.43858 3.96803H6.5965L7.24121 4.54194L6.99615 5.44756ZM11.722 4.93867L10.9961 5.44756L11.2412 4.54194L10.5965 3.96803H11.4386L11.721 3.22897L12.0522 3.96803H12.77L12.206 4.54194L12.4244 5.44756L11.722 4.93867ZM2.99615 9.44756L3.72203 8.93867L4.42437 9.44756L4.206 8.54194L4.77004 7.96803H4.05218L3.72101 7.22897L3.43858 7.96803H2.5965L3.24121 8.54194L2.99615 9.44756ZM7.72203 8.93867L6.99615 9.44756L7.24121 8.54194L6.5965 7.96803H7.43858L7.72101 7.22897L8.05218 7.96803H8.77004L8.206 8.54194L8.42437 9.44756L7.72203 8.93867ZM10.9961 9.44756L11.722 8.93867L12.4244 9.44756L12.206 8.54194L12.77 7.96803H12.0522L11.721 7.22897L11.4386 7.96803H10.5965L11.2412 8.54194L10.9961 9.44756ZM15.722 4.93867L14.9961 5.44756L15.2412 4.54194L14.5965 3.96803H15.4386L15.721 3.22897L16.0522 3.96803H16.77L16.206 4.54194L16.4244 5.44756L15.722 4.93867ZM14.9961 9.44756L15.722 8.93867L16.4244 9.44756L16.206 8.54194L16.77 7.96803H16.0522L15.721 7.22897L15.4386 7.96803H14.5965L15.2412 8.54194L14.9961 9.44756Z" fill="#F7FCFF"/>
</g>
</svg>
