<svg width="32" height="24" viewBox="0 0 32 24" fill="none" xmlns="http://www.w3.org/2000/svg">
<mask id="mask0_270_67387" style="mask-type:luminance" maskUnits="userSpaceOnUse" x="0" y="0" width="32" height="24">
<rect width="32" height="24" fill="white"/>
</mask>
<g mask="url(#mask0_270_67387)">
<path fill-rule="evenodd" clip-rule="evenodd" d="M0 0V24H32V0H0Z" fill="#FFB400"/>
<mask id="mask1_270_67387" style="mask-type:luminance" maskUnits="userSpaceOnUse" x="0" y="0" width="32" height="24">
<path fill-rule="evenodd" clip-rule="evenodd" d="M0 0V24H32V0H0Z" fill="white"/>
</mask>
<g mask="url(#mask1_270_67387)">
<path fill-rule="evenodd" clip-rule="evenodd" d="M0 0V6H32V0H0Z" fill="#C51918"/>
<path fill-rule="evenodd" clip-rule="evenodd" d="M0 18V24H32V18H0Z" fill="#C51918"/>
<rect x="5.00803" y="10.272" width="1.12" height="5.824" fill="#F1F9FF"/>
<path fill-rule="evenodd" clip-rule="evenodd" d="M6.576 9.26399H4.56V9.82399H4.896V10.272H6.24V9.82399H6.576V9.26399Z" fill="#C88A02"/>
<path fill-rule="evenodd" clip-rule="evenodd" d="M6.24 16.432H6.576V16.992H4.56V16.432H4.896V15.984H6.24V16.432Z" fill="#C88A02"/>
<path fill-rule="evenodd" clip-rule="evenodd" d="M5.56803 9.376C5.81176 9.376 5.83653 9.28422 5.98033 9.14715C6.09198 9.04071 6.35203 8.9087 6.35203 8.76C6.35203 8.41979 6.00102 8.144 5.56803 8.144C5.13504 8.144 4.78403 8.41979 4.78403 8.76C4.78403 8.92566 4.96311 9.03644 5.09851 9.14715C5.24117 9.26379 5.34589 9.376 5.56803 9.376Z" fill="#AD1619"/>
<path fill-rule="evenodd" clip-rule="evenodd" d="M4.56 16.992H6.576V17.888C6.576 17.888 6.324 17.776 6.072 17.776C5.82 17.776 5.568 17.888 5.568 17.888C5.568 17.888 5.316 17.776 5.064 17.776C4.812 17.776 4.56 17.888 4.56 17.888V16.992Z" fill="#005BBF"/>
<mask id="mask2_270_67387" style="mask-type:luminance" maskUnits="userSpaceOnUse" x="4" y="16" width="3" height="2">
<path fill-rule="evenodd" clip-rule="evenodd" d="M4.56 16.992H6.576V17.888C6.576 17.888 6.324 17.776 6.072 17.776C5.82 17.776 5.568 17.888 5.568 17.888C5.568 17.888 5.316 17.776 5.064 17.776C4.812 17.776 4.56 17.888 4.56 17.888V16.992Z" fill="white"/>
</mask>
<g mask="url(#mask2_270_67387)">
<path d="M4.54177 17.7119L4.49777 17.6046C4.67935 17.5238 4.86158 17.4833 5.04408 17.4833C5.16198 17.4833 5.22356 17.4997 5.32823 17.5463C5.42017 17.5872 5.46783 17.6 5.56838 17.6C5.66893 17.6 5.71659 17.5872 5.80853 17.5463C5.9132 17.4997 5.97477 17.4833 6.09268 17.4833C6.27518 17.4833 6.45741 17.5238 6.63899 17.6046L6.59498 17.7119C6.42703 17.6372 6.25972 17.6 6.09268 17.6C5.99213 17.6 5.94447 17.6127 5.85253 17.6536C5.74786 17.7002 5.68629 17.7166 5.56838 17.7166C5.45047 17.7166 5.3889 17.7002 5.28423 17.6536C5.19229 17.6127 5.14463 17.6 5.04408 17.6C4.87704 17.6 4.70973 17.6372 4.54177 17.7119Z" fill="white"/>
<path d="M4.54177 17.3759L4.49777 17.2687C4.67935 17.1878 4.86158 17.1473 5.04408 17.1473C5.16198 17.1473 5.22356 17.1637 5.32823 17.2103C5.42017 17.2512 5.46783 17.264 5.56838 17.264C5.66893 17.264 5.71659 17.2512 5.80853 17.2103C5.9132 17.1637 5.97477 17.1473 6.09268 17.1473C6.27518 17.1473 6.45741 17.1878 6.63899 17.2687L6.59498 17.3759C6.42703 17.3012 6.25972 17.264 6.09268 17.264C5.99213 17.264 5.94447 17.2767 5.85253 17.3176C5.74786 17.3642 5.68629 17.3806 5.56838 17.3806C5.45047 17.3806 5.3889 17.3642 5.28423 17.3176C5.19229 17.2767 5.14463 17.264 5.04408 17.264C4.87704 17.264 4.70973 17.3012 4.54177 17.3759Z" fill="white"/>
</g>
<rect x="15.984" y="10.272" width="1.12" height="5.824" fill="#F1F9FF"/>
<path fill-rule="evenodd" clip-rule="evenodd" d="M17.552 9.26399H15.536V9.82399H15.872V10.272H17.216V9.82399H17.552V9.26399Z" fill="#C88A02"/>
<path fill-rule="evenodd" clip-rule="evenodd" d="M17.216 16.432H17.552V16.992H15.536V16.432H15.872V15.984H17.216V16.432Z" fill="#C88A02"/>
<path fill-rule="evenodd" clip-rule="evenodd" d="M16.544 9.376C16.7877 9.376 16.8125 9.28422 16.9563 9.14715C17.068 9.04071 17.328 8.9087 17.328 8.76C17.328 8.41979 16.977 8.144 16.544 8.144C16.111 8.144 15.76 8.41979 15.76 8.76C15.76 8.92566 15.9391 9.03644 16.0745 9.14715C16.2171 9.26379 16.3219 9.376 16.544 9.376Z" fill="#AD1619"/>
<path fill-rule="evenodd" clip-rule="evenodd" d="M15.536 16.992H17.552V17.888C17.552 17.888 17.3 17.776 17.048 17.776C16.796 17.776 16.544 17.888 16.544 17.888C16.544 17.888 16.292 17.776 16.04 17.776C15.788 17.776 15.536 17.888 15.536 17.888V16.992Z" fill="#005BBF"/>
<mask id="mask3_270_67387" style="mask-type:luminance" maskUnits="userSpaceOnUse" x="15" y="16" width="3" height="2">
<path fill-rule="evenodd" clip-rule="evenodd" d="M15.536 16.992H17.552V17.888C17.552 17.888 17.3 17.776 17.048 17.776C16.796 17.776 16.544 17.888 16.544 17.888C16.544 17.888 16.292 17.776 16.04 17.776C15.788 17.776 15.536 17.888 15.536 17.888V16.992Z" fill="white"/>
</mask>
<g mask="url(#mask3_270_67387)">
<path d="M15.5178 17.7119L15.4738 17.6046C15.6554 17.5238 15.8376 17.4833 16.0201 17.4833C16.138 17.4833 16.1996 17.4997 16.3042 17.5463C16.3962 17.5872 16.4438 17.6 16.5444 17.6C16.6449 17.6 16.6926 17.5872 16.7845 17.5463C16.8892 17.4997 16.9508 17.4833 17.0687 17.4833C17.2512 17.4833 17.4334 17.5238 17.615 17.6046L17.571 17.7119C17.403 17.6372 17.2357 17.6 17.0687 17.6C16.9681 17.6 16.9205 17.6127 16.8285 17.6536C16.7239 17.7002 16.6623 17.7166 16.5444 17.7166C16.4265 17.7166 16.3649 17.7002 16.2602 17.6536C16.1683 17.6127 16.1206 17.6 16.0201 17.6C15.8531 17.6 15.6857 17.6372 15.5178 17.7119Z" fill="white"/>
<path d="M15.5178 17.3759L15.4738 17.2687C15.6554 17.1878 15.8376 17.1473 16.0201 17.1473C16.138 17.1473 16.1996 17.1637 16.3042 17.2103C16.3962 17.2512 16.4438 17.264 16.5444 17.264C16.6449 17.264 16.6926 17.2512 16.7845 17.2103C16.8892 17.1637 16.9508 17.1473 17.0687 17.1473C17.2512 17.1473 17.4334 17.1878 17.615 17.2687L17.571 17.3759C17.403 17.3012 17.2357 17.264 17.0687 17.264C16.9681 17.264 16.9205 17.2767 16.8285 17.3176C16.7239 17.3642 16.6623 17.3806 16.5444 17.3806C16.4265 17.3806 16.3649 17.3642 16.2602 17.3176C16.1683 17.2767 16.1206 17.264 16.0201 17.264C15.8531 17.264 15.6857 17.3012 15.5178 17.3759Z" fill="white"/>
</g>
<path fill-rule="evenodd" clip-rule="evenodd" d="M4.98797 15.6799C5.1899 15.4351 5.30281 15.2124 5.30281 14.9758C5.30281 14.8267 5.25843 14.6979 5.18067 14.5926L5.19381 14.5867C5.1926 14.5873 5.41533 14.4902 5.49287 14.453C5.63703 14.3839 5.76402 14.3107 5.88785 14.2206C5.9669 14.1632 6.07282 14.1005 6.23428 14.0138C6.26218 13.9989 6.3378 13.9587 6.38603 13.9331L6.42697 13.9114C6.50545 13.8695 6.56388 13.8374 6.61817 13.8059C6.78734 13.7078 6.89914 13.6267 6.98464 13.5183C7.18716 13.2615 7.14511 12.9133 6.86132 12.7201C6.72228 12.6255 6.53465 12.5711 6.25962 12.5284L6.20275 12.5196C6.1088 12.5051 5.92827 12.4772 5.86627 12.4674C5.73465 12.4468 5.61722 12.4275 5.51251 12.4092C6.20108 12.2946 7.18432 12.3367 7.61681 12.56L8.02787 11.7639C7.14653 11.3088 5.1384 11.3553 4.38826 11.8719C3.83807 12.2508 3.9119 12.8235 4.48435 13.0702C4.72355 13.1732 5.03538 13.2416 5.61243 13.3343C5.51573 13.3904 5.43556 13.4417 5.36086 13.496C5.2851 13.5511 5.20394 13.5979 5.10549 13.6451C5.05841 13.6677 4.91901 13.7289 4.8551 13.7569L4.85505 13.757L4.85505 13.757L4.82293 13.7711C4.35665 13.9831 4.13035 14.2764 4.19797 14.8059L4.23458 15.0925L4.30024 15.1127L4.98797 15.6799ZM4.41159 14.9392L4.41017 14.9434L4.41125 14.9404L4.41159 14.9392ZM16.706 14.9758C16.706 15.2124 16.8189 15.4351 17.0208 15.6799L17.7085 15.1127L17.7742 15.0925L17.8108 14.8059C17.8784 14.2764 17.6521 13.9831 17.1858 13.7711L17.1537 13.757C17.0898 13.7289 16.9504 13.6677 16.9033 13.6451C16.8048 13.5979 16.7237 13.5511 16.6479 13.496C16.5732 13.4417 16.4931 13.3904 16.3963 13.3343C16.9734 13.2416 17.2852 13.1732 17.5244 13.0702C18.0969 12.8235 18.1707 12.2508 17.6205 11.8719C16.8704 11.3553 14.8623 11.3088 13.9809 11.7639L14.392 12.56C14.8245 12.3367 15.8077 12.2946 16.4963 12.4092C16.3916 12.4275 16.2741 12.4468 16.1425 12.4674C16.0805 12.4771 15.9001 12.505 15.8061 12.5196L15.8058 12.5196L15.7492 12.5284C15.4741 12.5711 15.2865 12.6255 15.1475 12.7201C14.8637 12.9133 14.8216 13.2615 15.0241 13.5183C15.1096 13.6267 15.2214 13.7078 15.3906 13.8059C15.4449 13.8374 15.5033 13.8695 15.5818 13.9114L15.6226 13.933C15.6708 13.9586 15.7466 13.9988 15.7745 14.0138C15.936 14.1005 16.0419 14.1632 16.1209 14.2206C16.2448 14.3107 16.3718 14.3839 16.5159 14.453C16.5935 14.4902 16.8162 14.5873 16.815 14.5867L16.8281 14.5926C16.7503 14.6979 16.706 14.8267 16.706 14.9758Z" fill="#AD1619"/>
<path d="M5.92338 12.4L6.25397 12.4684V12.9611C5.90187 13.2421 5.00803 13.7156 5.00803 13.7156V12.4H5.92338Z" fill="#F1F9FF"/>
<path d="M16.3146 12.4L15.984 12.4684V12.9611C16.3361 13.2421 17.2299 13.7156 17.2299 13.7156V12.4H16.3146Z" fill="#F1F9FF"/>
<path fill-rule="evenodd" clip-rule="evenodd" d="M14.776 7.20598V7.042C14.1999 6.62855 13.5966 6.42183 12.9662 6.42183C12.3617 6.15435 11.7499 6.05053 11.1308 6.11035C11.1309 6.10844 11.131 6.10747 11.131 6.10747C10.2001 6.01637 9.26182 6.42183 9.26182 6.42183C8.31612 6.42183 7.452 7.042 7.452 7.042V7.20598L8.58162 8.34051C8.58162 8.34051 8.89959 9.4325 11.1264 9.17586V9.17863C11.1264 9.17863 12.6008 9.13839 12.7044 9.10393C12.7455 9.09026 12.7881 9.07781 12.8317 9.06509C13.1205 8.98078 13.4501 8.88454 13.6464 8.34051L14.776 7.20598ZM11.1264 6.16052C11.0943 6.53823 10.9107 8.81517 11.1264 9.16818V6.16052Z" fill="#AD1619"/>
<path fill-rule="evenodd" clip-rule="evenodd" d="M8.31371 8.14958L8.31446 8.14613L7.51974 7.39844L7.59649 7.31687L8.34222 8.01847L8.3613 7.9307C8.4833 7.95723 8.57247 7.96698 8.62444 7.96146V7.80926L8.78975 7.89872C8.87106 7.94272 8.9875 7.95455 9.14087 7.9296C9.25351 7.91127 9.32952 7.78045 9.35437 7.50168L9.40454 6.93892L9.57284 7.47826C9.649 7.72232 9.76518 7.82991 9.93058 7.82991C10.0921 7.82991 10.1571 7.77069 10.1642 7.62141L10.1846 7.19803L10.376 7.57619C10.445 7.71242 10.5401 7.77423 10.6754 7.77423C10.8688 7.77423 10.9981 7.61296 10.9981 7.35991H11.0017H11.2221H11.2257C11.2257 7.61296 11.3549 7.77423 11.5484 7.77423C11.6836 7.77423 11.7788 7.71242 11.8477 7.57619L12.0392 7.19803L12.0595 7.62141C12.0667 7.77069 12.1316 7.82991 12.2932 7.82991C12.4586 7.82991 12.5748 7.72232 12.6509 7.47826L12.8192 6.93892L12.8694 7.50168C12.8942 7.78045 12.9702 7.91127 13.0829 7.9296C13.2363 7.95455 13.3527 7.94272 13.434 7.89872L13.5993 7.80926V7.96146C13.6513 7.96698 13.7405 7.95723 13.8625 7.9307L13.8979 8.09356L14.7234 7.31687L14.8002 7.39844L13.7729 8.36496C13.623 8.64099 13.5475 8.82318 13.5475 8.89886C13.5475 9.01432 13.2471 9.08285 12.6608 9.15324C12.2016 9.20838 11.6595 9.2454 11.2162 9.25093V9.25165L11.16 9.25146L11.1037 9.25165V9.25093C10.6604 9.2454 10.1183 9.20838 9.65905 9.15324C9.07279 9.08285 8.77241 9.01432 8.77241 8.89886C8.77241 8.88454 8.7697 8.86641 8.76431 8.84456C8.70519 8.76927 8.66363 8.64611 8.63597 8.53502C8.61002 8.48306 8.58037 8.42633 8.54705 8.36496L8.31945 8.15083L8.31371 8.14958ZM13.8192 8.16762C13.6357 8.20009 13.5033 8.19681 13.433 8.13959C13.3231 8.17157 13.1941 8.17464 13.0469 8.15069C12.8897 8.1251 12.7802 8.02051 12.7143 7.84701C12.6283 7.9566 12.5195 8.02425 12.3892 8.04612C13.106 8.14777 13.608 8.29064 13.608 8.29064C13.608 8.29064 13.5956 8.39679 13.5655 8.52159C13.5974 8.45626 13.6351 8.38366 13.6788 8.30354L13.6896 8.28954L13.8192 8.16762ZM12.051 8.00355C11.9887 7.97258 11.9389 7.92767 11.9029 7.86979C11.8495 7.91698 11.7887 7.95149 11.7212 7.97279C11.8339 7.98141 11.9441 7.99182 12.051 8.00355ZM11.3258 7.951C11.2386 7.91068 11.1661 7.84612 11.1119 7.76339C11.0581 7.84553 10.9862 7.90977 10.8998 7.95014C10.951 7.94861 11.0025 7.94754 11.0542 7.94696V7.94645L11.0991 7.94658L11.144 7.94645V7.94696C11.205 7.94764 11.2656 7.94901 11.3258 7.951ZM8.62218 8.28187L8.51776 8.18363C8.64311 8.19606 8.73589 8.18426 8.79076 8.13959C8.90069 8.17157 9.02963 8.17464 9.17684 8.15069C9.33408 8.1251 9.44358 8.02051 9.50946 7.84701C9.59299 7.95343 9.69796 8.0203 9.82325 8.04411C9.20531 8.13093 8.74426 8.24905 8.62218 8.28187ZM10.4977 7.97123C10.3892 7.97929 10.2829 7.98904 10.1796 8.00004C10.2387 7.96923 10.2862 7.92552 10.3208 7.86979C10.373 7.91584 10.4321 7.94983 10.4977 7.97123ZM13.253 8.90105C13.3315 8.93777 13.3944 8.90114 13.4441 8.83083C13.4398 8.85025 13.4371 8.8678 13.436 8.88353C13.4295 8.88783 13.4194 8.89301 13.4062 8.89856C13.3693 8.91407 13.313 8.9306 13.2397 8.94732C13.0956 8.98018 12.8905 9.01286 12.6475 9.04204C12.1729 9.09902 11.6086 9.13652 11.16 9.13946C10.7113 9.13652 10.147 9.09902 9.67241 9.04204C9.42937 9.01286 9.22431 8.98018 9.08024 8.94732C9.0188 8.9333 8.96928 8.91943 8.93313 8.90617C8.93711 8.90466 8.94113 8.90295 8.94519 8.90105C9.18986 8.78657 10.8078 8.67913 11.0991 8.66059C11.3905 8.67913 13.0084 8.78657 13.253 8.90105ZM13.5609 8.88115L13.5601 8.8822L13.5609 8.88107L13.5616 8.88054L13.5609 8.88115Z" fill="#C88A02"/>
<path fill-rule="evenodd" clip-rule="evenodd" d="M11.1122 5.34708C11.2978 5.34708 11.4482 5.19665 11.4482 5.01108C11.4482 4.82551 11.2978 4.67508 11.1122 4.67508C10.9267 4.67508 10.7762 4.82551 10.7762 5.01108C10.7762 5.19665 10.9267 5.34708 11.1122 5.34708Z" fill="#005BBF"/>
<path fill-rule="evenodd" clip-rule="evenodd" d="M10.8937 6.9968C10.9008 7.03368 10.912 7.06801 10.9262 7.09861C10.8828 7.08203 10.8313 7.07243 10.776 7.07243C10.6214 7.07243 10.496 7.14764 10.496 7.24043C10.496 7.33321 10.6214 7.40843 10.776 7.40843C10.9306 7.40843 11.056 7.33321 11.056 7.24043C11.056 7.33321 11.1814 7.40843 11.336 7.40843C11.4906 7.40843 11.616 7.33321 11.616 7.24043C11.616 7.14764 11.4906 7.07243 11.336 7.07243C11.2971 7.07243 11.26 7.07719 11.2263 7.08581C11.2344 7.03988 11.2341 6.98721 11.2235 6.93269C11.194 6.78089 11.0962 6.67219 11.0051 6.68989C10.9141 6.7076 10.8642 6.84501 10.8937 6.9968ZM11.056 7.24043L11.0559 7.2353L11.0561 7.23538L11.056 7.24043ZM9.24618 7.21061C9.23203 7.18001 9.22083 7.14568 9.21366 7.1088C9.18416 6.95701 9.23407 6.8196 9.32515 6.80189C9.41623 6.78419 9.51398 6.89289 9.54349 7.04469C9.55409 7.09921 9.55444 7.15188 9.54632 7.19781C9.58 7.18919 9.61708 7.18443 9.656 7.18443C9.81064 7.18443 9.936 7.25964 9.936 7.35243C9.936 7.44521 9.81064 7.52043 9.656 7.52043C9.50136 7.52043 9.376 7.44521 9.376 7.35243L9.37613 7.34738L9.37587 7.3473L9.376 7.35243C9.376 7.44521 9.25064 7.52043 9.096 7.52043C8.94136 7.52043 8.816 7.44521 8.816 7.35243C8.816 7.25964 8.94136 7.18443 9.096 7.18443C9.15126 7.18443 9.20278 7.19403 9.24618 7.21061ZM12.7539 7.31299C12.741 7.40487 12.6064 7.46191 12.4533 7.44038C12.3001 7.41886 12.1865 7.32693 12.1994 7.23505C12.2123 7.14317 12.3469 7.08613 12.5 7.10765C12.5548 7.11534 12.6044 7.13203 12.6451 7.15448C12.6354 7.12221 12.629 7.08666 12.6271 7.04914C12.619 6.89471 12.6875 6.76559 12.7802 6.76073C12.8729 6.75588 12.9545 6.87713 12.9626 7.03156C12.9655 7.08702 12.9585 7.13922 12.9441 7.18358C12.9787 7.17973 13.016 7.18017 13.0546 7.18559C13.2077 7.20711 13.3214 7.29904 13.3085 7.39093C13.2956 7.48281 13.161 7.53984 13.0078 7.51832C12.8547 7.4968 12.741 7.40487 12.7539 7.31299ZM12.7539 7.31299L12.7545 7.30789L12.7548 7.30801L12.7539 7.31299ZM13.8204 7.75724C13.9569 7.82984 14.1029 7.82228 14.1464 7.74036L14.1487 7.73577C14.1622 7.75001 14.1781 7.76037 14.1963 7.76592C14.285 7.79305 14.3936 7.69516 14.4388 7.54728C14.484 7.39939 14.4487 7.25752 14.36 7.23039C14.2713 7.20327 14.1627 7.30116 14.1175 7.44904C14.1065 7.48496 14.1003 7.52053 14.0984 7.55419C14.0679 7.51918 14.0269 7.48651 13.9781 7.46057C13.8416 7.38797 13.6956 7.39553 13.652 7.47746C13.6084 7.55938 13.6838 7.68464 13.8204 7.75724ZM8.32482 7.79155C8.18828 7.86415 8.04228 7.85659 7.99872 7.77467C7.99792 7.77315 7.99715 7.77163 7.99643 7.77008C7.98298 7.78432 7.96706 7.79468 7.94889 7.80023C7.86016 7.82736 7.75158 7.72947 7.70637 7.58159C7.66116 7.4337 7.69643 7.29183 7.78516 7.2647C7.87389 7.23757 7.98248 7.33547 8.02769 7.48335C8.03867 7.51927 8.0449 7.55484 8.04678 7.5885C8.07731 7.55349 8.11829 7.52082 8.16708 7.49488C8.30362 7.42228 8.44962 7.42984 8.49317 7.51176C8.53673 7.59369 8.46136 7.71895 8.32482 7.79155Z" fill="#C88A02"/>
<path fill-rule="evenodd" clip-rule="evenodd" d="M10.9868 4.0766H11.2202V4.224H11.3726V4.45734H11.2202V4.924H11.3726V5.15734H10.832V4.924H10.9868V4.45734H10.832V4.224H10.9868V4.0766Z" fill="#C88A02"/>
<rect x="10.944" y="5.34401" width="0.448" height="1.456" fill="#C88A02"/>
<path d="M9.14058 5.58784L9.13863 5.69982C8.14552 5.68248 7.57587 5.82741 7.43127 6.11626C7.28177 6.41489 7.30957 6.77791 7.51905 7.20913L7.4183 7.25807C7.1948 6.79797 7.16428 6.39938 7.33112 6.06612C7.50285 5.72308 8.10547 5.56977 9.14058 5.58784Z" fill="white"/>
<path d="M9.33274 6.58098L9.27532 6.67714C9.05905 6.54801 8.95081 6.32763 8.95081 6.02393C8.95081 5.58745 9.17565 5.3315 9.673 5.15634C9.99042 5.04455 10.424 5.09038 10.9751 5.29016L10.9369 5.39545C10.4079 5.20367 9.99861 5.16041 9.71021 5.26198C9.25402 5.42264 9.06281 5.64031 9.06281 6.02393C9.06281 6.29044 9.15271 6.47349 9.33274 6.58098Z" fill="white"/>
<path d="M7.66015 7.03737L7.44881 7.1116C7.22953 6.48726 7.29215 6.06324 7.66684 5.88034C7.99701 5.71917 8.47819 5.65358 9.11279 5.67929L9.10372 5.90311C8.50288 5.87876 8.05588 5.93969 7.7651 6.08163C7.51886 6.20184 7.47381 6.50683 7.66015 7.03737Z" fill="#C88A02"/>
<path d="M10.1293 5.43869C9.61715 5.43869 9.40684 5.56343 9.28669 5.93171C9.21012 6.16641 9.28438 6.36673 9.52517 6.55371L9.38778 6.73063C9.07604 6.48855 8.96613 6.19207 9.07373 5.86224C9.22686 5.39289 9.52731 5.21469 10.1293 5.21469C10.5238 5.21469 10.8312 5.31835 11.0452 5.52931L11.0786 5.56221V6.64217H10.8546V5.65795C10.6874 5.51277 10.4474 5.43869 10.1293 5.43869Z" fill="#C88A02"/>
<path d="M13.049 5.69984L13.0509 5.81182C14.0441 5.79448 14.6137 5.93941 14.7583 6.22826C14.9078 6.52689 14.88 6.88991 14.6705 7.32113L14.7713 7.37007C14.9948 6.90997 15.0253 6.51138 14.8585 6.17812C14.6867 5.83508 14.0841 5.68177 13.049 5.69984Z" fill="white"/>
<path d="M12.6983 6.60426L12.7557 6.70043C12.972 6.57129 13.0802 6.35092 13.0802 6.04722C13.0802 5.61074 12.8554 5.35478 12.358 5.17962C12.0406 5.06783 11.607 5.11367 11.056 5.31345L11.0942 5.41874C11.6231 5.22696 12.0324 5.18369 12.3208 5.28526C12.777 5.44592 12.9682 5.6636 12.9682 6.04722C12.9682 6.31373 12.8783 6.49677 12.6983 6.60426Z" fill="white"/>
<path d="M14.5992 7.14937L14.8106 7.2236C15.0299 6.59926 14.9673 6.17524 14.5926 5.99234C14.2624 5.83117 13.7812 5.76558 13.1466 5.79129L13.1557 6.01511C13.7565 5.99076 14.2035 6.05169 14.4943 6.19363C14.7405 6.31384 14.7856 6.61883 14.5992 7.14937Z" fill="#C88A02"/>
<path d="M12.1173 5.45599C12.6294 5.45599 12.8397 5.58073 12.9599 5.94902C13.0365 6.18372 12.9622 6.38403 12.7214 6.57102L12.8588 6.74794C13.1705 6.50586 13.2805 6.20937 13.1728 5.87954C13.0197 5.41019 12.7193 5.23199 12.1173 5.23199C11.7227 5.23199 11.4154 5.33565 11.2014 5.54661L11.168 5.57951V6.65948H11.392V5.67525C11.5591 5.53008 11.7992 5.45599 12.1173 5.45599Z" fill="#C88A02"/>
<path opacity="0.3" fill-rule="evenodd" clip-rule="evenodd" d="M7.47202 9.26401H14.752V15.8048C14.752 15.8048 14.2112 18 11.112 18C8.01279 18 7.47202 15.747 7.47202 15.747V9.26401Z" fill="#E1E5E8"/>
<mask id="mask4_270_67387" style="mask-type:luminance" maskUnits="userSpaceOnUse" x="7" y="9" width="8" height="9">
<path fill-rule="evenodd" clip-rule="evenodd" d="M7.47202 9.26401H14.752V15.8048C14.752 15.8048 14.2112 18 11.112 18C8.01279 18 7.47202 15.747 7.47202 15.747V9.26401Z" fill="white"/>
</mask>
<g mask="url(#mask4_270_67387)">
<rect x="7.47202" y="13.296" width="3.696" height="4.368" fill="#FFC034"/>
<rect x="7.92001" y="13.52" width="0.448" height="4.144" fill="#AD1619"/>
<rect x="9.48801" y="13.52" width="0.448" height="4.144" fill="#AD1619"/>
<rect x="8.70401" y="13.52" width="0.448" height="4.144" fill="#AD1619"/>
<rect x="10.272" y="13.52" width="0.448" height="4.144" fill="#AD1619"/>
<rect x="7.47202" y="9.15201" width="3.696" height="4.256" fill="#AD1619"/>
<rect x="11.056" y="13.184" width="3.696" height="4.256" fill="#AD1619"/>
<rect x="11.056" y="9.26401" width="3.92" height="4.144" fill="#F1F9FF"/>
<path fill-rule="evenodd" clip-rule="evenodd" d="M9.04001 9.60001H9.37601V10.5292H9.60001V10.0646H9.93601V10.5292H10.272V11.1099H9.93601V12.1553H10.272V12.736H8.25601V12.1553H8.59201V11.1099H8.25601V10.5292H8.48001V10.0646H8.81601V10.5292H9.04001V9.60001Z" fill="#C88A02"/>
<path d="M12.9789 9.79504L13.2082 9.5495L13.6898 9.99932L13.4604 10.2449L12.9789 9.79504Z" fill="#C88A02"/>
<path fill-rule="evenodd" clip-rule="evenodd" d="M14.36 16.1401V13.688H11.56V16.1196L11.5645 16.1385C11.7062 16.7424 12.1889 17.048 12.96 17.048C13.7304 17.048 14.213 16.7503 14.3554 16.1595L14.36 16.1401ZM12.96 16.712C12.3413 16.712 12.0034 16.5036 11.896 16.0799V14.024H14.024V16.0994C13.9169 16.5092 13.579 16.712 12.96 16.712Z" fill="#FFC034"/>
<path fill-rule="evenodd" clip-rule="evenodd" d="M13.0756 13.893H12.8423V15.0046L11.9225 14.0042L11.7576 14.1558L12.5894 15.0606H11.8357V15.3966H12.4147H12.6077L11.7576 16.3212L11.9225 16.4728L12.8423 15.4724V16.7719H13.0756V15.5894L13.8879 16.4728L14.0528 16.3212L13.2026 15.3966H14.1516V15.0606H13.221L14.0528 14.1558L13.8879 14.0042L13.0756 14.8877V13.893Z" fill="#FFC034"/>
<path fill-rule="evenodd" clip-rule="evenodd" d="M13.4827 17.4427C13.4827 17.4427 11.1105 17.6292 11.1105 16.0992C11.1105 16.0992 11.0879 17.4427 8.6109 17.4427V18.6505H13.4827V17.4427Z" fill="#F1F9FF"/>
<path fill-rule="evenodd" clip-rule="evenodd" d="M11.112 14.192C11.5759 14.192 11.952 13.7909 11.952 13.296C11.952 12.8012 11.5759 12.4 11.112 12.4C10.6481 12.4 10.272 12.8012 10.272 13.296C10.272 13.7909 10.6481 14.192 11.112 14.192Z" fill="#005BBF" stroke="#AD1619" stroke-width="1.16667"/>
</g>
</g>
</g>
</svg>
