<svg width="32" height="24" viewBox="0 0 32 24" fill="none" xmlns="http://www.w3.org/2000/svg">
<mask id="mask0_270_67499" style="mask-type:luminance" maskUnits="userSpaceOnUse" x="0" y="0" width="32" height="24">
<rect width="32" height="24" fill="white"/>
</mask>
<g mask="url(#mask0_270_67499)">
<path fill-rule="evenodd" clip-rule="evenodd" d="M8 0H32V24H8V0Z" fill="#EF0000"/>
<path fill-rule="evenodd" clip-rule="evenodd" d="M0 0H12V24H0V0Z" fill="#2F8D00"/>
<mask id="mask1_270_67499" style="mask-type:luminance" maskUnits="userSpaceOnUse" x="4" y="4" width="16" height="16">
<path fill-rule="evenodd" clip-rule="evenodd" d="M11.9048 19.8072C7.64429 19.8072 4.19049 16.3118 4.19049 12C4.19049 7.6882 7.64429 4.19278 11.9048 4.19278C16.1653 4.19278 19.6191 7.6882 19.6191 12C19.6191 16.3118 16.1653 19.8072 11.9048 19.8072Z" fill="white"/>
</mask>
<g mask="url(#mask1_270_67499)">
<path fill-rule="evenodd" clip-rule="evenodd" d="M11.4286 4H12.4286V6.6988H11.4286V4Z" fill="#FFE017"/>
<path fill-rule="evenodd" clip-rule="evenodd" d="M11.4286 17.494H12.4286V20H11.4286V17.494Z" fill="#FFE017"/>
<path d="M4.31446 12.4038L4.03488 11.6865C7.12007 10.4548 9.44863 9.6605 11.0286 9.30252C13.3467 8.77732 15.8938 8.38873 18.67 8.13647L18.7381 8.90447C15.9938 9.15383 13.4794 9.53743 11.1951 10.055C9.66211 10.4023 7.36589 11.1856 4.31446 12.4038Z" fill="#FFE017"/>
<path d="M19.1409 7.6639L18.914 8.40001C16.5823 7.66389 14.6828 7.34748 13.2228 7.44548L13.1724 6.67609C14.74 6.57086 16.7271 6.90189 19.1409 7.6639Z" fill="#FFE017"/>
<path d="M19.9477 11.7798L19.5167 12.4156C18.328 11.5904 16.8635 11.1758 15.1133 11.1758V10.4048C17.0107 10.4048 18.6255 10.8618 19.9477 11.7798Z" fill="#FFE017"/>
<path d="M19.302 12.0106L19.499 12.7554C16.9364 13.4496 14.5304 13.8434 12.281 13.9361C10.016 14.0295 7.37616 13.6343 4.35913 12.7534L4.57031 12.0126C7.51401 12.872 10.0747 13.2554 12.25 13.1657C14.4408 13.0754 16.7915 12.6906 19.302 12.0106Z" fill="#FFE017"/>
<path d="M19.0117 15.6359L17.8074 16.8706C15.5187 14.584 13.5038 12.949 11.775 11.9667C10.0167 10.9675 7.72372 9.95293 4.8996 8.92703L5.47874 7.2941C8.38615 8.35025 10.7635 9.40215 12.6143 10.4539C14.4947 11.5224 16.623 13.2494 19.0117 15.6359Z" fill="#FFE017"/>
<path d="M5.45833 16.3353L5.00247 15.7175C5.06613 15.6694 5.17972 15.5891 5.33622 15.4875C5.59462 15.3196 5.88156 15.152 6.19028 14.9954C7.04058 14.5641 7.89352 14.2947 8.70704 14.27C8.74682 14.2688 8.78644 14.2682 8.82589 14.2682V15.0393C8.79411 15.0393 8.76212 15.0398 8.72992 15.0407C8.04435 15.0616 7.29149 15.2993 6.53169 15.6847C6.24849 15.8284 5.98462 15.9825 5.7478 16.1364C5.66537 16.1899 5.59244 16.2394 5.52994 16.2836C5.49351 16.3093 5.46933 16.327 5.45833 16.3353Z" fill="#FFE017"/>
<path d="M5.81216 16.6026L6.00403 15.8563C8.54415 16.5253 10.5024 16.8586 11.8691 16.8586C13.2307 16.8586 15.2573 16.4654 17.9357 15.6763L18.1487 16.4166C15.4069 17.2245 13.3181 17.6297 11.8691 17.6297C10.4252 17.6297 8.40951 17.2866 5.81216 16.6026Z" fill="#FFE017"/>
<path d="M4.82245 9.69443L6.02953 8.46249L7.79685 10.2361L6.58977 11.4681L4.82245 9.69443Z" fill="#FFE017"/>
<path d="M14.8359 15.8478L15.7338 14.3698L18.5374 16.1143L17.6396 17.5922L14.8359 15.8478Z" fill="#FFE017"/>
</g>
<path fill-rule="evenodd" clip-rule="evenodd" d="M4.19049 12C4.19049 16.3118 7.64429 19.8072 11.9048 19.8072C16.1653 19.8072 19.6191 16.3118 19.6191 12C19.6191 7.6882 16.1653 4.19278 11.9048 4.19278C7.64429 4.19278 4.19049 7.6882 4.19049 12ZM18.6667 12.0964C18.6667 15.8227 15.6819 18.8434 12 18.8434C8.31812 18.8434 5.33335 15.8227 5.33335 12.0964C5.33335 8.37014 8.31812 5.34941 12 5.34941C15.6819 5.34941 18.6667 8.37014 18.6667 12.0964Z" fill="#F9E813"/>
<path d="M7.65671 7.18527V13.446C8.06884 15.9241 9.4573 17.1631 11.8221 17.1631C14.1869 17.1631 15.5753 15.9241 15.9875 13.446V7.18527H7.65671Z" fill="white"/>
<path d="M7.08527 6.60696H16.5589V13.4943L16.551 13.542C16.0933 16.2936 14.471 17.7414 11.8221 17.7414C9.17319 17.7414 7.55083 16.2936 7.09319 13.542L7.08527 13.4943V6.60696Z" fill="#C51918"/>
<path d="M9.25223 8.71069H14.392V13.1516C14.392 13.1516 14.0105 15.4449 11.8221 15.4449C9.63363 15.4449 9.25223 13.1516 9.25223 13.1516V8.71069Z" fill="#F7FCFF"/>
<path fill-rule="evenodd" clip-rule="evenodd" d="M8 7.08435H8.72289V7.56628H8V7.08435Z" fill="#F9E813"/>
<path fill-rule="evenodd" clip-rule="evenodd" d="M7.61905 7.27713H8.95238V7.51809H7.61905V7.27713Z" fill="#060101"/>
<path fill-rule="evenodd" clip-rule="evenodd" d="M7.61905 7.46988H8.34194V7.71084H7.61905V7.46988Z" fill="#F9E813"/>
<path fill-rule="evenodd" clip-rule="evenodd" d="M8.38095 7.46988H9.10384V7.71084H8.38095V7.46988Z" fill="#F9E813"/>
<path fill-rule="evenodd" clip-rule="evenodd" d="M7.61905 8.04822H8.10098V8.77111H7.61905V8.04822Z" fill="#F9E813"/>
<path fill-rule="evenodd" clip-rule="evenodd" d="M8.57144 8.04822H9.05337V8.77111H8.57144V8.04822Z" fill="#F9E813"/>
<path fill-rule="evenodd" clip-rule="evenodd" d="M8.19049 8.04822H8.43145V8.77111H8.19049V8.04822Z" fill="#F9E813"/>
<path fill-rule="evenodd" clip-rule="evenodd" d="M7.61905 7.85544H8.95238V8.0964H7.61905V7.85544Z" fill="#060101"/>
<path fill-rule="evenodd" clip-rule="evenodd" d="M7.61905 8.43375H8.95238V8.67471H7.61905V8.43375Z" fill="#060101"/>
<path fill-rule="evenodd" clip-rule="evenodd" d="M7.80954 7.66266H8.0505V7.90362H7.80954V7.66266Z" fill="#F9E813"/>
<path fill-rule="evenodd" clip-rule="evenodd" d="M8.57144 7.66266H8.81241V7.90362H8.57144V7.66266Z" fill="#F9E813"/>
<path fill-rule="evenodd" clip-rule="evenodd" d="M8.19049 7.46988H8.43145V7.95181H8.19049V7.46988Z" fill="#F9E813"/>
<path fill-rule="evenodd" clip-rule="evenodd" d="M11.619 7.08435H12.3419V7.56628H11.619V7.08435Z" fill="#F9E813"/>
<path fill-rule="evenodd" clip-rule="evenodd" d="M11.2381 7.27713H12.5714V7.51809H11.2381V7.27713Z" fill="#060101"/>
<path fill-rule="evenodd" clip-rule="evenodd" d="M11.2381 7.46988H11.961V7.71084H11.2381V7.46988Z" fill="#F9E813"/>
<path fill-rule="evenodd" clip-rule="evenodd" d="M12 7.46988H12.7229V7.71084H12V7.46988Z" fill="#F9E813"/>
<path fill-rule="evenodd" clip-rule="evenodd" d="M11.2381 8.04822H11.72V8.77111H11.2381V8.04822Z" fill="#F9E813"/>
<path fill-rule="evenodd" clip-rule="evenodd" d="M12.1905 8.04822H12.6724V8.77111H12.1905V8.04822Z" fill="#F9E813"/>
<path fill-rule="evenodd" clip-rule="evenodd" d="M11.8095 8.04822H12.0505V8.77111H11.8095V8.04822Z" fill="#F9E813"/>
<path fill-rule="evenodd" clip-rule="evenodd" d="M11.2381 7.85544H12.5714V8.0964H11.2381V7.85544Z" fill="#060101"/>
<path fill-rule="evenodd" clip-rule="evenodd" d="M11.2381 8.43375H12.5714V8.67471H11.2381V8.43375Z" fill="#060101"/>
<path fill-rule="evenodd" clip-rule="evenodd" d="M11.4286 7.66266H11.6696V7.90362H11.4286V7.66266Z" fill="#F9E813"/>
<path fill-rule="evenodd" clip-rule="evenodd" d="M12.1905 7.66266H12.4315V7.90362H12.1905V7.66266Z" fill="#F9E813"/>
<path fill-rule="evenodd" clip-rule="evenodd" d="M11.8095 7.46988H12.0505V7.95181H11.8095V7.46988Z" fill="#F9E813"/>
<path fill-rule="evenodd" clip-rule="evenodd" d="M15.0476 7.08435H15.7705V7.56628H15.0476V7.08435Z" fill="#F9E813"/>
<path fill-rule="evenodd" clip-rule="evenodd" d="M14.6667 7.27713H16V7.51809H14.6667V7.27713Z" fill="#060101"/>
<path fill-rule="evenodd" clip-rule="evenodd" d="M14.6667 7.46988H15.3895V7.71084H14.6667V7.46988Z" fill="#F9E813"/>
<path fill-rule="evenodd" clip-rule="evenodd" d="M15.4286 7.46988H16.1514V7.71084H15.4286V7.46988Z" fill="#F9E813"/>
<path fill-rule="evenodd" clip-rule="evenodd" d="M14.6667 8.04822H15.1486V8.77111H14.6667V8.04822Z" fill="#F9E813"/>
<path fill-rule="evenodd" clip-rule="evenodd" d="M15.619 8.04822H16.101V8.77111H15.619V8.04822Z" fill="#F9E813"/>
<path fill-rule="evenodd" clip-rule="evenodd" d="M15.2381 8.04822H15.4791V8.77111H15.2381V8.04822Z" fill="#F9E813"/>
<path fill-rule="evenodd" clip-rule="evenodd" d="M14.6667 7.85544H16V8.0964H14.6667V7.85544Z" fill="#060101"/>
<path fill-rule="evenodd" clip-rule="evenodd" d="M14.6667 8.43375H16V8.67471H14.6667V8.43375Z" fill="#060101"/>
<path fill-rule="evenodd" clip-rule="evenodd" d="M14.8571 7.66266H15.0981V7.90362H14.8571V7.66266Z" fill="#F9E813"/>
<path fill-rule="evenodd" clip-rule="evenodd" d="M15.619 7.66266H15.86V7.90362H15.619V7.66266Z" fill="#F9E813"/>
<path fill-rule="evenodd" clip-rule="evenodd" d="M15.2381 7.46988H15.4791V7.95181H15.2381V7.46988Z" fill="#F9E813"/>
<path fill-rule="evenodd" clip-rule="evenodd" d="M15.0476 10.5542H15.7705V11.0362H15.0476V10.5542Z" fill="#F9E813"/>
<path fill-rule="evenodd" clip-rule="evenodd" d="M14.6667 10.747H16V10.988H14.6667V10.747Z" fill="#060101"/>
<path fill-rule="evenodd" clip-rule="evenodd" d="M14.6667 10.9398H15.3895V11.1807H14.6667V10.9398Z" fill="#F9E813"/>
<path fill-rule="evenodd" clip-rule="evenodd" d="M15.4286 10.9398H16.1514V11.1807H15.4286V10.9398Z" fill="#F9E813"/>
<path fill-rule="evenodd" clip-rule="evenodd" d="M14.6667 11.5181H15.1486V12.241H14.6667V11.5181Z" fill="#F9E813"/>
<path fill-rule="evenodd" clip-rule="evenodd" d="M15.619 11.5181H16.101V12.241H15.619V11.5181Z" fill="#F9E813"/>
<path fill-rule="evenodd" clip-rule="evenodd" d="M15.2381 11.5181H15.4791V12.241H15.2381V11.5181Z" fill="#F9E813"/>
<path fill-rule="evenodd" clip-rule="evenodd" d="M14.6667 11.3253H16V11.5663H14.6667V11.3253Z" fill="#060101"/>
<path fill-rule="evenodd" clip-rule="evenodd" d="M14.6667 11.9036H16V12.1446H14.6667V11.9036Z" fill="#060101"/>
<path fill-rule="evenodd" clip-rule="evenodd" d="M14.8571 11.1325H15.0981V11.3735H14.8571V11.1325Z" fill="#F9E813"/>
<path fill-rule="evenodd" clip-rule="evenodd" d="M15.619 11.1325H15.86V11.3735H15.619V11.1325Z" fill="#F9E813"/>
<path fill-rule="evenodd" clip-rule="evenodd" d="M15.2381 10.9398H15.4791V11.4217H15.2381V10.9398Z" fill="#F9E813"/>
<path fill-rule="evenodd" clip-rule="evenodd" d="M8 10.5542H8.72289V11.0362H8V10.5542Z" fill="#F9E813"/>
<path fill-rule="evenodd" clip-rule="evenodd" d="M7.61905 10.747H8.95238V10.988H7.61905V10.747Z" fill="#060101"/>
<path fill-rule="evenodd" clip-rule="evenodd" d="M7.61905 10.9398H8.34194V11.1807H7.61905V10.9398Z" fill="#F9E813"/>
<path fill-rule="evenodd" clip-rule="evenodd" d="M8.38095 10.9398H9.10384V11.1807H8.38095V10.9398Z" fill="#F9E813"/>
<path fill-rule="evenodd" clip-rule="evenodd" d="M7.61905 11.5181H8.10098V12.241H7.61905V11.5181Z" fill="#F9E813"/>
<path fill-rule="evenodd" clip-rule="evenodd" d="M8.57144 11.5181H9.05337V12.241H8.57144V11.5181Z" fill="#F9E813"/>
<path fill-rule="evenodd" clip-rule="evenodd" d="M8.19049 11.5181H8.43145V12.241H8.19049V11.5181Z" fill="#F9E813"/>
<path fill-rule="evenodd" clip-rule="evenodd" d="M7.61905 11.3253H8.95238V11.5663H7.61905V11.3253Z" fill="#060101"/>
<path fill-rule="evenodd" clip-rule="evenodd" d="M7.61905 11.9036H8.95238V12.1446H7.61905V11.9036Z" fill="#060101"/>
<path fill-rule="evenodd" clip-rule="evenodd" d="M7.80954 11.1325H8.0505V11.3735H7.80954V11.1325Z" fill="#F9E813"/>
<path fill-rule="evenodd" clip-rule="evenodd" d="M8.57144 11.1325H8.81241V11.3735H8.57144V11.1325Z" fill="#F9E813"/>
<path fill-rule="evenodd" clip-rule="evenodd" d="M8.19049 10.9398H8.43145V11.4217H8.19049V10.9398Z" fill="#F9E813"/>
<path fill-rule="evenodd" clip-rule="evenodd" d="M8.46375 14.904L8.92841 14.3502L9.29759 14.66L8.83292 15.2137L8.46375 14.904Z" fill="#F9E813"/>
<path fill-rule="evenodd" clip-rule="evenodd" d="M8.36655 15.3197L9.2236 14.2983L9.40819 14.4532L8.55114 15.4746L8.36655 15.3197Z" fill="#060101"/>
<path fill-rule="evenodd" clip-rule="evenodd" d="M8.51422 15.4436L8.97889 14.8899L9.16348 15.0448L8.69881 15.5985L8.51422 15.4436Z" fill="#F9E813"/>
<path fill-rule="evenodd" clip-rule="evenodd" d="M9.00397 14.86L9.46863 14.3062L9.65322 14.4611L9.18856 15.0148L9.00397 14.86Z" fill="#F9E813"/>
<path fill-rule="evenodd" clip-rule="evenodd" d="M8.95721 15.8154L9.26699 15.4462L9.82076 15.9109L9.51098 16.28L8.95721 15.8154Z" fill="#F9E813"/>
<path fill-rule="evenodd" clip-rule="evenodd" d="M9.5694 15.0858L9.87917 14.7166L10.4329 15.1813L10.1232 15.5505L9.5694 15.0858Z" fill="#F9E813"/>
<path fill-rule="evenodd" clip-rule="evenodd" d="M9.32452 15.3776L9.47941 15.193L10.0332 15.6577L9.87829 15.8423L9.32452 15.3776Z" fill="#F9E813"/>
<path fill-rule="evenodd" clip-rule="evenodd" d="M8.80957 15.6914L9.66662 14.67L9.85121 14.8249L8.99416 15.8463L8.80957 15.6914Z" fill="#060101"/>
<path fill-rule="evenodd" clip-rule="evenodd" d="M9.25256 16.0632L10.1096 15.0418L10.2942 15.1967L9.43715 16.2181L9.25256 16.0632Z" fill="#060101"/>
<path fill-rule="evenodd" clip-rule="evenodd" d="M8.78433 15.4216L8.93922 15.237L9.12381 15.3919L8.96892 15.5765L8.78433 15.4216Z" fill="#F9E813"/>
<path fill-rule="evenodd" clip-rule="evenodd" d="M9.27408 14.838L9.42897 14.6534L9.61356 14.8083L9.45867 14.9929L9.27408 14.838Z" fill="#F9E813"/>
<path fill-rule="evenodd" clip-rule="evenodd" d="M8.88153 15.0059L9.03642 14.8213L9.4056 15.1311L9.25071 15.3157L8.88153 15.0059Z" fill="#F9E813"/>
<path fill-rule="evenodd" clip-rule="evenodd" d="M14.9785 14.4662L15.4431 15.02L15.0739 15.3298L14.6093 14.776L14.9785 14.4662Z" fill="#F9E813"/>
<path fill-rule="evenodd" clip-rule="evenodd" d="M14.5859 14.2983L15.443 15.3197L15.2584 15.4746L14.4013 14.4532L14.5859 14.2983Z" fill="#060101"/>
<path fill-rule="evenodd" clip-rule="evenodd" d="M14.4382 14.4222L14.9029 14.976L14.7183 15.1309L14.2536 14.5771L14.4382 14.4222Z" fill="#F9E813"/>
<path fill-rule="evenodd" clip-rule="evenodd" d="M14.928 15.0059L15.3926 15.5597L15.2081 15.7145L14.7434 15.1608L14.928 15.0059Z" fill="#F9E813"/>
<path fill-rule="evenodd" clip-rule="evenodd" d="M13.9952 14.794L14.305 15.1632L13.7512 15.6278L13.4415 15.2586L13.9952 14.794Z" fill="#F9E813"/>
<path fill-rule="evenodd" clip-rule="evenodd" d="M14.6074 15.5235L14.9172 15.8927L14.3634 16.3574L14.0536 15.9882L14.6074 15.5235Z" fill="#F9E813"/>
<path fill-rule="evenodd" clip-rule="evenodd" d="M14.3625 15.2317L14.5174 15.4163L13.9636 15.8809L13.8088 15.6964L14.3625 15.2317Z" fill="#F9E813"/>
<path fill-rule="evenodd" clip-rule="evenodd" d="M14.1429 14.67L14.9999 15.6914L14.8153 15.8463L13.9583 14.8249L14.1429 14.67Z" fill="#060101"/>
<path fill-rule="evenodd" clip-rule="evenodd" d="M13.6999 15.0418L14.5569 16.0632L14.3724 16.2181L13.5153 15.1967L13.6999 15.0418Z" fill="#060101"/>
<path fill-rule="evenodd" clip-rule="evenodd" d="M14.413 14.692L14.5679 14.8766L14.3833 15.0315L14.2284 14.8469L14.413 14.692Z" fill="#F9E813"/>
<path fill-rule="evenodd" clip-rule="evenodd" d="M14.9027 15.2757L15.0576 15.4603L14.873 15.6152L14.7182 15.4306L14.9027 15.2757Z" fill="#F9E813"/>
<path fill-rule="evenodd" clip-rule="evenodd" d="M14.8055 14.86L14.9604 15.0445L14.5913 15.3543L14.4364 15.1697L14.8055 14.86Z" fill="#F9E813"/>
<path fill-rule="evenodd" clip-rule="evenodd" d="M12.5584 9.20483H11.2381V10.1663C11.2381 10.1663 11.3361 10.6628 11.8983 10.6628C12.4605 10.6628 12.5584 10.1663 12.5584 10.1663V9.20483ZM11.8095 9.59038C11.8095 9.69684 11.7242 9.78315 11.6191 9.78315C11.5139 9.78315 11.4286 9.69684 11.4286 9.59038C11.4286 9.48391 11.5139 9.39761 11.6191 9.39761C11.7242 9.39761 11.8095 9.48391 11.8095 9.59038ZM11.6191 10.5542C11.7242 10.5542 11.8095 10.4679 11.8095 10.3615C11.8095 10.255 11.7242 10.1687 11.6191 10.1687C11.5139 10.1687 11.4286 10.255 11.4286 10.3615C11.4286 10.4679 11.5139 10.5542 11.6191 10.5542ZM12.381 10.3615C12.381 10.4679 12.2957 10.5542 12.1905 10.5542C12.0853 10.5542 12 10.4679 12 10.3615C12 10.255 12.0853 10.1687 12.1905 10.1687C12.2957 10.1687 12.381 10.255 12.381 10.3615ZM11.9048 10.1687C12.01 10.1687 12.0952 10.0824 12.0952 9.97592C12.0952 9.86945 12.01 9.78315 11.9048 9.78315C11.7996 9.78315 11.7143 9.86945 11.7143 9.97592C11.7143 10.0824 11.7996 10.1687 11.9048 10.1687ZM12.381 9.59038C12.381 9.69684 12.2957 9.78315 12.1905 9.78315C12.0853 9.78315 12 9.69684 12 9.59038C12 9.48391 12.0853 9.39761 12.1905 9.39761C12.2957 9.39761 12.381 9.48391 12.381 9.59038Z" fill="#013399"/>
<path fill-rule="evenodd" clip-rule="evenodd" d="M12.5584 11.3253H11.2381V12.2868C11.2381 12.2868 11.3361 12.7833 11.8983 12.7833C12.4605 12.7833 12.5584 12.2868 12.5584 12.2868V11.3253ZM11.8095 11.7109C11.8095 11.8173 11.7242 11.9036 11.6191 11.9036C11.5139 11.9036 11.4286 11.8173 11.4286 11.7109C11.4286 11.6044 11.5139 11.5181 11.6191 11.5181C11.7242 11.5181 11.8095 11.6044 11.8095 11.7109ZM11.6191 12.6747C11.7242 12.6747 11.8095 12.5884 11.8095 12.4819C11.8095 12.3755 11.7242 12.2892 11.6191 12.2892C11.5139 12.2892 11.4286 12.3755 11.4286 12.4819C11.4286 12.5884 11.5139 12.6747 11.6191 12.6747ZM12.381 12.4819C12.381 12.5884 12.2957 12.6747 12.1905 12.6747C12.0853 12.6747 12 12.5884 12 12.4819C12 12.3755 12.0853 12.2892 12.1905 12.2892C12.2957 12.2892 12.381 12.3755 12.381 12.4819ZM11.9048 12.2892C12.01 12.2892 12.0952 12.2029 12.0952 12.0964C12.0952 11.9899 12.01 11.9036 11.9048 11.9036C11.7996 11.9036 11.7143 11.9899 11.7143 12.0964C11.7143 12.2029 11.7996 12.2892 11.9048 12.2892ZM12.381 11.7109C12.381 11.8173 12.2957 11.9036 12.1905 11.9036C12.0853 11.9036 12 11.8173 12 11.7109C12 11.6044 12.0853 11.5181 12.1905 11.5181C12.2957 11.5181 12.381 11.6044 12.381 11.7109Z" fill="#013399"/>
<path fill-rule="evenodd" clip-rule="evenodd" d="M14.2727 11.3253H12.9524V12.2868C12.9524 12.2868 13.0504 12.7833 13.6126 12.7833C14.1747 12.7833 14.2727 12.2868 14.2727 12.2868V11.3253ZM13.5238 11.7109C13.5238 11.8173 13.4385 11.9036 13.3333 11.9036C13.2281 11.9036 13.1429 11.8173 13.1429 11.7109C13.1429 11.6044 13.2281 11.5181 13.3333 11.5181C13.4385 11.5181 13.5238 11.6044 13.5238 11.7109ZM13.3333 12.6747C13.4385 12.6747 13.5238 12.5884 13.5238 12.4819C13.5238 12.3755 13.4385 12.2892 13.3333 12.2892C13.2281 12.2892 13.1429 12.3755 13.1429 12.4819C13.1429 12.5884 13.2281 12.6747 13.3333 12.6747ZM14.0952 12.4819C14.0952 12.5884 14.01 12.6747 13.9048 12.6747C13.7996 12.6747 13.7143 12.5884 13.7143 12.4819C13.7143 12.3755 13.7996 12.2892 13.9048 12.2892C14.01 12.2892 14.0952 12.3755 14.0952 12.4819ZM13.6191 12.2892C13.7243 12.2892 13.8095 12.2029 13.8095 12.0964C13.8095 11.9899 13.7243 11.9036 13.6191 11.9036C13.5139 11.9036 13.4286 11.9899 13.4286 12.0964C13.4286 12.2029 13.5139 12.2892 13.6191 12.2892ZM14.0952 11.7109C14.0952 11.8173 14.01 11.9036 13.9048 11.9036C13.7996 11.9036 13.7143 11.8173 13.7143 11.7109C13.7143 11.6044 13.7996 11.5181 13.9048 11.5181C14.01 11.5181 14.0952 11.6044 14.0952 11.7109Z" fill="#013399"/>
<path fill-rule="evenodd" clip-rule="evenodd" d="M10.8441 11.3253H9.5238V12.2868C9.5238 12.2868 9.62178 12.7833 10.184 12.7833C10.7462 12.7833 10.8441 12.2868 10.8441 12.2868V11.3253ZM10.0952 11.7109C10.0952 11.8173 10.01 11.9036 9.90476 11.9036C9.79956 11.9036 9.71428 11.8173 9.71428 11.7109C9.71428 11.6044 9.79956 11.5181 9.90476 11.5181C10.01 11.5181 10.0952 11.6044 10.0952 11.7109ZM9.90476 12.6747C10.01 12.6747 10.0952 12.5884 10.0952 12.4819C10.0952 12.3755 10.01 12.2892 9.90476 12.2892C9.79956 12.2892 9.71428 12.3755 9.71428 12.4819C9.71428 12.5884 9.79956 12.6747 9.90476 12.6747ZM10.6667 12.4819C10.6667 12.5884 10.5814 12.6747 10.4762 12.6747C10.371 12.6747 10.2857 12.5884 10.2857 12.4819C10.2857 12.3755 10.371 12.2892 10.4762 12.2892C10.5814 12.2892 10.6667 12.3755 10.6667 12.4819ZM10.1905 12.2892C10.2957 12.2892 10.3809 12.2029 10.3809 12.0964C10.3809 11.9899 10.2957 11.9036 10.1905 11.9036C10.0853 11.9036 9.99999 11.9899 9.99999 12.0964C9.99999 12.2029 10.0853 12.2892 10.1905 12.2892ZM10.6667 11.7109C10.6667 11.8173 10.5814 11.9036 10.4762 11.9036C10.371 11.9036 10.2857 11.8173 10.2857 11.7109C10.2857 11.6044 10.371 11.5181 10.4762 11.5181C10.5814 11.5181 10.6667 11.6044 10.6667 11.7109Z" fill="#013399"/>
<path fill-rule="evenodd" clip-rule="evenodd" d="M12.5584 13.4458H11.2381V14.4073C11.2381 14.4073 11.3361 14.9038 11.8983 14.9038C12.4605 14.9038 12.5584 14.4073 12.5584 14.4073V13.4458ZM11.8095 13.8313C11.8095 13.9378 11.7242 14.0241 11.6191 14.0241C11.5139 14.0241 11.4286 13.9378 11.4286 13.8313C11.4286 13.7249 11.5139 13.6386 11.6191 13.6386C11.7242 13.6386 11.8095 13.7249 11.8095 13.8313ZM11.6191 14.7952C11.7242 14.7952 11.8095 14.7089 11.8095 14.6024C11.8095 14.496 11.7242 14.4097 11.6191 14.4097C11.5139 14.4097 11.4286 14.496 11.4286 14.6024C11.4286 14.7089 11.5139 14.7952 11.6191 14.7952ZM12.381 14.6024C12.381 14.7089 12.2957 14.7952 12.1905 14.7952C12.0853 14.7952 12 14.7089 12 14.6024C12 14.496 12.0853 14.4097 12.1905 14.4097C12.2957 14.4097 12.381 14.496 12.381 14.6024ZM11.9048 14.4097C12.01 14.4097 12.0952 14.3233 12.0952 14.2169C12.0952 14.1104 12.01 14.0241 11.9048 14.0241C11.7996 14.0241 11.7143 14.1104 11.7143 14.2169C11.7143 14.3233 11.7996 14.4097 11.9048 14.4097ZM12.381 13.8313C12.381 13.9378 12.2957 14.0241 12.1905 14.0241C12.0853 14.0241 12 13.9378 12 13.8313C12 13.7249 12.0853 13.6386 12.1905 13.6386C12.2957 13.6386 12.381 13.7249 12.381 13.8313Z" fill="#013399"/>
</g>
</svg>
