<svg width="29" height="21" viewBox="0 0 29 21" fill="none" xmlns="http://www.w3.org/2000/svg">
<path d="M12.9557 2.23728C12.635 2.04969 12.2399 2.04969 11.9192 2.23728L4.9066 6.29554H1.03647C0.464036 6.29554 0 6.76564 0 7.34549V13.6455C0 14.2254 0.464036 14.6955 1.03647 14.6955H4.9066L11.9234 18.7569C12.4204 19.0445 13.0535 18.8695 13.3374 18.366C13.4268 18.2074 13.4738 18.0281 13.4739 17.8455V3.14554C13.4735 2.77081 13.276 2.42468 12.9557 2.23728Z" fill="black"/>
<path d="M17.3907 6.68718C17.0318 6.23616 16.3802 6.16473 15.9344 6.52759C15.4883 6.89083 15.4172 7.55177 15.7758 8.00378C15.7758 8.00378 15.7758 8.00384 15.7758 8.00391C16.8476 9.48754 16.8476 11.5035 15.7758 12.9872C15.4145 13.4369 15.4815 14.0983 15.9254 14.4643C16.3693 14.8304 17.0222 14.7625 17.3835 14.3128C17.3859 14.3099 17.3883 14.3069 17.3906 14.3039C19.0864 12.0555 19.0864 8.93549 17.3907 6.68718Z" fill="black"/>
<path d="M21.5364 3.53721C21.1776 3.08618 20.526 3.01475 20.0802 3.37761C19.634 3.74085 19.563 4.40179 19.9216 4.8538C19.9216 4.85387 19.9216 4.85387 19.9216 4.85393C22.3905 8.19919 22.3905 12.7919 19.9216 16.1372C19.5603 16.5869 19.6273 17.2483 20.0712 17.6143C20.5152 17.9804 21.168 17.9125 21.5293 17.4628C21.5317 17.4599 21.5341 17.4569 21.5364 17.4539C24.5816 13.3278 24.5816 7.6632 21.5364 3.53721Z" fill="black"/>
<path d="M25.6823 0.387206C25.3209 -0.0625292 24.6681 -0.130389 24.2242 0.235674C23.7836 0.598908 23.7137 1.2537 24.0675 1.70393C27.9148 6.91704 27.9148 14.0741 24.0675 19.2872C23.7061 19.7369 23.7731 20.3983 24.2171 20.7643C24.661 21.1304 25.3138 21.0625 25.6752 20.6128C25.6776 20.6098 25.6799 20.6069 25.6823 20.6039C30.1059 14.61 30.1059 6.38099 25.6823 0.387206Z" fill="black"/>
</svg>
